<?xml version="1.0" encoding="utf-8"?>
<!-- Generator: Adobe Illustrator 25.3.0, SVG Export Plug-In . SVG Version: 6.00 Build 0)  -->
<svg version="1.1" id="Capa_1" xmlns="http://www.w3.org/2000/svg" xmlns:xlink="http://www.w3.org/1999/xlink" x="0px" y="0px"
	 viewBox="0 0 1000 1000" style="enable-background:new 0 0 1000 1000;" xml:space="preserve">
<style type="text/css">
	.st0{fill:#E73451;}
	.st1{display:none;opacity:0.89;}
	.st2{display:inline;fill:#010202;}
	.st3{fill:#010202;}
	.st4{opacity:0.63;fill:#010202;}
	.st5{display:none;}
	.st6{display:inline;fill:url(#SVGID_1_);}
</style>
<g>
	<g id="iLJi1d.tif_00000129917127413633109360000004578389333219123101_">
		<path class="st0" d="M841.6,983.3H158.4c-78.2,0-141.7-63.4-141.7-141.7V158.4c0-78.2,63.4-141.7,141.7-141.7h683.3
			c78.2,0,141.7,63.4,141.7,141.7v683.3C983.3,919.9,919.9,983.3,841.6,983.3z"/>
	</g>
	<g class="st1">
		<path class="st2" d="M615,38.5c-247.2,97-499.9,382.2-564.3,636.9s83.1,382.9,330.2,285.9c246.6-96.9,499.3-382,564.3-636.9
			C1009.6,69.6,862.2-58.5,615,38.5z"/>
	</g>
	<g>
		<g>
			<g>
				<path class="st3" d="M502.2,427.5c-1.4-0.1-2.8-0.1-4.2-0.1c-5.2,0-10.3,0.6-15.2,1.6c-32.7,7-57.3,36.1-57.3,70.9
					c0,25.3,13.1,47.6,32.8,60.6c-4-6.6-7.3-13.7-9.7-21.2c-8.6-10.8-13.8-24.5-13.8-39.4c0-23.2,12.6-43.6,31.3-54.6
					c-14,17.3-22.3,39.2-22.3,63.2c0,10.7,1.7,21.1,4.8,30.8c4.6,5.8,10.2,10.7,16.5,14.6c-7.8-13.7-12-29.2-12-45.4
					c0-24.4,9.5-47.3,26.7-64.5c2.2-2.2,4.6-4.3,7-6.3c3.6-0.7,7.4-1,11.2-1c34.8,0,63.2,28.4,63.2,63.2c0,34.8-28.4,63.2-63.2,63.2
					c-12,0-23.3-3.4-32.9-9.2c3.1,5.4,6.7,10.4,10.9,15.1c6.9,2.2,14.3,3.4,22,3.4c40,0,72.5-32.5,72.5-72.5
					C570.5,461.3,540.2,429.6,502.2,427.5z"/>
			</g>
		</g>
		<g>
			<path class="st3" d="M465.1,553.8c-6.3-3.9-11.9-8.8-16.5-14.6c2.4,7.5,5.7,14.6,9.7,21.2c5.4,3.6,11.4,6.4,17.7,8.5
				C471.8,564.2,468.2,559.1,465.1,553.8z"/>
		</g>
	</g>
	<path class="st4" d="M545.1,460.6l-5.7,8.5c-1.6,2.4-4.9,3-7.3,1.4l-8.5-5.7c-2.4-1.6-3-4.9-1.4-7.3l5.7-8.5c1.6-2.4,4.9-3,7.3-1.4
		l8.5,5.7C546.1,454.9,546.7,458.2,545.1,460.6z"/>
	<g id="iLJi1d.tif_00000029022569108879257010000016767545517353456805_">
		<g>
			<g>
				<path class="st3" d="M521.9,604.3c-49.2,10.1-98.5,20.1-147.7,30.2c-14.5-23.7-29.1-47.3-43.5-71c-3.4-5.6-1.7-10.6,4.7-14.8
					c8-5.3,18.8-3.2,23-2.3C374.7,550.2,437.6,572.1,521.9,604.3z"/>
			</g>
			<path class="st3" d="M517,601.3c13.5-3.1,26.3-7.3,26.3-7.3c8.1-2.7,15.1-5.4,20.7-7.7c3.5-1.6,9-4.3,15.9-7.5
				c12.6-6,14.3-6.9,18.9-8.9c8.6-3.7,15.1-5.9,20.8-8c12.9-4.7,17.2-5.8,22-6.4c11.7-1.4,16.7,1.1,18.9,2.4c1.6,1,5.1,3.2,6.2,7.2
				c0.8,2.9-0.1,6.3-2.4,10.2c-19.8,32.5-39.7,65-59.5,97.6c-17.2,28.3-34.4,56.5-51.6,84.8c-11.4,18.6-22.8,37.2-34.4,55.8
				c-2.9,4.6-8.2,7.1-16,7.1c-9.1,0.1-17-1.3-20.9-7.4c-6.5-10.2-12.6-20.5-18.8-30.8c-0.6-1.1-1-1.6-1.9-3
				c-6.6-10.8-23.4-38.1-38.9-63.8c-13.5-22.4-38.5-64-70.7-118.1C436.6,607.5,499.7,605.3,517,601.3z"/>
		</g>
	</g>
	<g>
		<g>
			<path class="st3" d="M474.2,395.3c49.2-10.1,98.5-20.1,147.7-30.2c14.5,23.7,29.1,47.3,43.5,71c3.4,5.6,1.7,10.6-4.7,14.8
				c-8,5.3-18.8,3.2-23,2.3C621.4,449.4,558.6,427.5,474.2,395.3z"/>
		</g>
		<path class="st3" d="M479.1,398.3c-13.5,3.1-26.3,7.3-26.3,7.3c-8.1,2.7-15.1,5.4-20.7,7.7c-3.5,1.6-9,4.3-15.9,7.5
			c-12.6,6-14.3,6.9-18.9,8.9c-8.6,3.7-15.1,5.9-20.8,8c-12.9,4.7-17.2,5.8-22,6.4c-11.7,1.4-16.7-1.1-18.9-2.4
			c-1.6-1-5.1-3.2-6.2-7.2c-0.8-2.9,0.1-6.3,2.4-10.2c19.8-32.5,39.7-65,59.5-97.6c17.2-28.3,34.4-56.5,51.6-84.8
			c11.4-18.6,22.8-37.2,34.4-55.8c2.9-4.6,8.2-7.1,16-7.1c9.1-0.1,17,1.3,20.9,7.4c6.5,10.2,12.6,20.5,18.8,30.8
			c0.6,1.1,1,1.6,1.9,3c6.6,10.8,23.4,38.1,38.9,63.8c13.5,22.4,38.5,64,70.7,118.1C559.5,392,496.4,394.3,479.1,398.3z"/>
	</g>
</g>
<g class="st5">
	
		<radialGradient id="SVGID_1_" cx="-282.0194" cy="290.9592" r="1" gradientTransform="matrix(-91.6583 -150.9116 184.3006 -111.9376 -78633.6484 -9102.5752)" gradientUnits="userSpaceOnUse">
		<stop  offset="0.4739" style="stop-color:#111111"/>
		<stop  offset="0.6823" style="stop-color:#270E0A"/>
		<stop  offset="0.8663" style="stop-color:#E73451"/>
	</radialGradient>
	<path class="st6" d="M775.6,895.8c41.6,15.1,87.6-6.3,102.7-47.9c15.1-41.6-6.3-87.6-47.9-102.7c-41.6-15.1-87.6,6.3-102.7,47.9
		C712.6,834.7,734,880.6,775.6,895.8z"/>
</g>
</svg>
